<?xml version="1.0" encoding="utf-8"?>
<svg version="1.1" xmlns:xlink="http://www.w3.org/1999/xlink" width="54px" height="57px" xmlns="http://www.w3.org/2000/svg">
  <g transform="matrix(1 0 0 1 -503 -342 )">
    <path d="M 503 342  L 557 342  L 557 399  L 503 399  L 503 342  " fill-rule="nonzero" fill="#cccccc" stroke="none" />
    <path d="M 507 346  L 553 346  L 553 395  L 507 395  L 507 346  " fill-rule="nonzero" fill="#ffffff" stroke="none" />
    <path d="M 535.1300000000001 358.65000000000003  C 532.8620000000001 358.65000000000003  531.08 356.86800000000005  531.08 354.6  C 531.08 352.332  532.8620000000001 350.55  535.1300000000001 350.55  C 537.3980000000001 350.55  539.1800000000001 352.332  539.1800000000001 354.6  C 539.1800000000001 356.86800000000005  537.3980000000001 358.65000000000003  535.1300000000001 358.65000000000003  " fill-rule="nonzero" fill="#cccccc" stroke="none" />
    <path d="M 509 394  L 509 368.7  L 519.75 357.2  L 534.8 366.4  L 543.4 364.1  L 552 366.4  L 552 394  L 509 394  " fill-rule="nonzero" fill="#169bd5" stroke="none" />
  </g>
</svg>