<?xml version="1.0" encoding="utf-8"?>
<svg version="1.1" xmlns:xlink="http://www.w3.org/1999/xlink" width="67px" height="46px" xmlns="http://www.w3.org/2000/svg">
  <g transform="matrix(1 0 0 1 -508 -98 )">
    <path d="M 508 98  L 575 98  L 575 144  L 508 144  L 508 98  " fill-rule="nonzero" fill="#cccccc" stroke="none" />
    <path d="M 511 101  L 572 101  L 572 141  L 511 141  L 511 101  " fill-rule="nonzero" fill="#ffffff" stroke="none" />
    <path d="M 546.29 111.80000000000001  C 544.358 111.80000000000001  542.84 110.28200000000001  542.84 108.35000000000001  C 542.84 106.418  544.358 104.9  546.29 104.9  C 548.222 104.9  549.74 106.418  549.74 108.35000000000001  C 549.74 110.28200000000001  548.222 111.80000000000001  546.29 111.80000000000001  " fill-rule="nonzero" fill="#cccccc" stroke="none" />
    <path d="M 512 140  L 512 119.1  L 526.75 109.6  L 547.4 124.34626865671642  L 559.2 115.3  L 571 124.34626865671642  L 571 140  L 512 140  " fill-rule="nonzero" fill="#169bd5" stroke="none" />
  </g>
</svg>