<?xml version="1.0" encoding="utf-8"?>
<svg version="1.1" xmlns:xlink="http://www.w3.org/1999/xlink" width="54px" height="43px" xmlns="http://www.w3.org/2000/svg">
  <g transform="matrix(1 0 0 1 -470 -802 )">
    <path d="M 470 802  L 524 802  L 524 845  L 470 845  L 470 802  " fill-rule="nonzero" fill="#cccccc" stroke="none" />
    <path d="M 473 805  L 521 805  L 521 842  L 473 842  L 473 805  " fill-rule="nonzero" fill="#ffffff" stroke="none" />
    <path d="M 501.30499999999995 814.9000000000001  C 499.49899999999997 814.9000000000001  498.08 813.4810000000001  498.08 811.6750000000001  C 498.08 809.869  499.49899999999997 808.45  501.30499999999995 808.45  C 503.111 808.45  504.53 809.869  504.53 811.6750000000001  C 504.53 813.4810000000001  503.111 814.9000000000001  501.30499999999995 814.9000000000001  " fill-rule="nonzero" fill="#cccccc" stroke="none" />
    <path d="M 474 841  L 474 821.75  L 485.5 813  L 501.6 824.2777777777778  L 510.8 818.25  L 520 824.2777777777778  L 520 841  L 474 841  " fill-rule="nonzero" fill="#169bd5" stroke="none" />
  </g>
</svg>